<?xml version="1.0" encoding="UTF-8" standalone="no"?>
<svg width="75px" height="75px" viewBox="0 0 75 75" version="1.1" xmlns="http://www.w3.org/2000/svg" xmlns:xlink="http://www.w3.org/1999/xlink">
    <!-- Generator: Sketch 39.1 (31720) - http://www.bohemiancoding.com/sketch -->
    <title>apartments</title>
    <desc>Created with Sketch.</desc>
    <defs></defs>
    <g id="Home" stroke="none" stroke-width="1" fill="none" fill-rule="evenodd">
        <g transform="translate(-683.000000, -2376.000000)" id="apartments" fill="#000000">
            <g transform="translate(683.000000, 2376.000000)">
                <g id="Capa_1">
                    <g id="Group">
                        <path d="M69.4630872,62.3502525 L69.4630872,60.3606061 C72.4832215,59.4840909 74.789849,56.664899 74.789849,53.3295455 C74.789849,49.2959596 71.5404362,46.0143939 67.5203859,46.0143939 C63.5003356,46.0143939 60.1985738,49.2959596 60.1985738,53.3295455 C60.1985738,56.6590909 62.4158557,59.4742424 65.4359899,60.3558081 L65.4359899,62.2681818 L55.6205537,62.2681818 L55.6205537,2.16717172 C55.6205537,1.05151515 54.8028523,0.146969697 53.6909396,0.146969697 L20.7211409,0.146969697 C19.6092282,0.146969697 18.6239094,1.05151515 18.6239094,2.16717172 L18.6239094,62.2681818 L9.31208054,62.2681818 L9.31208054,60.3558081 C12.3322148,59.4742424 14.6227349,56.6588384 14.6227349,53.3295455 C14.6227349,49.2959596 11.3733221,46.0143939 7.35327181,46.0143939 C3.33322148,46.0143939 0.0314597315,49.2959596 0.0314597315,53.3295455 C0.0317114094,56.664899 2.26510067,59.4840909 5.2852349,60.3606061 L5.2852349,62.3502525 C2.26510067,62.8353535 0,65.4444444 0,68.5815657 L0,72.8744949 C0,73.9901515 0.98557047,74.894697 2.09748322,74.894697 L72.8184564,74.894697 C73.9303691,74.894697 74.7483221,73.9901515 74.7483221,72.8744949 L74.7483221,68.5815657 C74.7483221,65.4444444 72.4832215,62.8353535 69.4630872,62.3502525 L69.4630872,62.3502525 Z M28.942953,62.2684343 L31.2080537,62.2684343 L31.2080537,70.8542929 L28.942953,70.8542929 L28.942953,62.2684343 L28.942953,62.2684343 Z M35.2348993,62.2684343 L39.261745,62.2684343 L39.261745,70.8542929 L37.3321309,70.8542929 L35.2348993,70.8542929 L35.2348993,62.2684343 L35.2348993,62.2684343 Z M43.2885906,62.2684343 L45.5536913,62.2684343 L45.5536913,70.8542929 L43.2885906,70.8542929 L43.2885906,62.2684343 L43.2885906,62.2684343 Z M49.5805369,60.2482323 C49.5805369,59.1325758 48.7628356,58.2280303 47.6509228,58.2280303 L27.0133389,58.2280303 C25.9014262,58.2280303 24.9161074,59.1325758 24.9161074,60.2482323 L24.9161074,70.8542929 L22.986745,70.8542929 L22.6510067,70.8542929 L22.6510067,4.18762626 L37.3321309,4.18762626 L51.5939597,4.18762626 L51.5939597,70.8542929 L51.6775168,70.8542929 L49.5805369,70.8542929 L49.5805369,60.2482323 L49.5805369,60.2482323 Z M4.02684564,68.5815657 C4.02684564,67.3282828 5.12692953,66.3088384 6.37600671,66.3088384 L18.6241611,66.3088384 L18.6241611,70.8542929 L4.02684564,70.8542929 L4.02684564,68.5815657 L4.02684564,68.5815657 Z M55.6208054,66.3088384 L68.5399329,66.3088384 C69.7890101,66.3088384 70.7214765,67.3282828 70.7214765,68.5815657 L70.7214765,70.8542929 L55.6208054,70.8542929 L55.6208054,66.3088384 L55.6208054,66.3088384 Z M67.5415268,50.0550505 C69.3410235,50.0550505 70.8050336,51.5239899 70.8050336,53.329798 C70.8050336,55.135101 69.3412752,56.6040404 67.5415268,56.6040404 C65.7417785,56.6040404 64.2780201,55.1353535 64.2780201,53.329798 C64.2780201,51.5239899 65.7420302,50.0550505 67.5415268,50.0550505 L67.5415268,50.0550505 Z M7.37441275,50.0550505 C9.1739094,50.0550505 10.6379195,51.5239899 10.6379195,53.329798 C10.6379195,55.135101 9.17416107,56.6040404 7.37441275,56.6040404 C5.57466443,56.6040404 4.11090604,55.1353535 4.11090604,53.329798 C4.11090604,51.5239899 5.57466443,50.0550505 7.37441275,50.0550505 L7.37441275,50.0550505 Z" id="Shape"></path>
                        <path d="M28.7743289,8.48055556 C28.2455537,8.48055556 27.7248322,8.69520202 27.352349,9.07146465 C26.977349,9.44772727 26.760906,9.96792929 26.760906,10.5007576 C26.760906,11.0333333 26.9770973,11.5537879 27.352349,11.9300505 C27.7248322,12.3060606 28.2458054,12.5209596 28.7743289,12.5209596 C29.3051174,12.5209596 29.8238255,12.3060606 30.1988255,11.9300505 C30.5735738,11.5537879 30.7877517,11.0333333 30.7877517,10.5007576 C30.7877517,9.96792929 30.5735738,9.44772727 30.1988255,9.07146465 C29.8238255,8.69494949 29.3051174,8.48055556 28.7743289,8.48055556 L28.7743289,8.48055556 Z" id="Shape"></path>
                        <path d="M35.6577181,9.07146465 C35.2827181,9.44772727 35.0662752,9.96792929 35.0662752,10.5007576 C35.0662752,11.0333333 35.2824664,11.5537879 35.6577181,11.9300505 C36.0327181,12.3060606 36.5511745,12.5209596 37.079698,12.5209596 C37.1645134,12.5209596 37.2485738,12.5136364 37.3321309,12.5027778 C37.7720638,12.4464646 38.189094,12.2462121 38.5041946,11.930303 C38.878943,11.5540404 39.0931208,11.0335859 39.0931208,10.5010101 C39.0931208,9.96818182 38.878943,9.4479798 38.5041946,9.07171717 C38.189094,8.75555556 37.7720638,8.55530303 37.3321309,8.4989899 C37.2485738,8.48813131 37.1645134,8.48080808 37.079698,8.48080808 C36.5509228,8.48055556 36.0327181,8.69494949 35.6577181,9.07146465 L35.6577181,9.07146465 Z" id="Shape"></path>
                        <path d="M45.3850671,8.48055556 C44.8562919,8.48055556 44.3355705,8.69520202 43.9630872,9.07146465 C43.5880872,9.44772727 43.3716443,9.96792929 43.3716443,10.5007576 C43.3716443,11.0333333 43.5878356,11.5537879 43.9630872,11.9300505 C44.3355705,12.3060606 44.8565436,12.5209596 45.3850671,12.5209596 C45.9158557,12.5209596 46.4345638,12.3060606 46.8095638,11.9300505 C47.1843121,11.5537879 47.3984899,11.0333333 47.3984899,10.5007576 C47.3984899,9.96792929 47.1843121,9.44772727 46.8095638,9.07146465 C46.4345638,8.69494949 45.9158557,8.48055556 45.3850671,8.48055556 L45.3850671,8.48055556 Z" id="Shape"></path>
                        <path d="M28.7743289,16.8138889 C28.2455537,16.8138889 27.7248322,17.0285354 27.352349,17.404798 C26.977349,17.7810606 26.760906,18.3012626 26.760906,18.8340909 C26.760906,19.3666667 26.9770973,19.8871212 27.352349,20.2633838 C27.727349,20.6393939 28.2458054,20.8542929 28.7743289,20.8542929 C29.3028523,20.8542929 29.8238255,20.6393939 30.1988255,20.2633838 C30.5735738,19.8871212 30.7877517,19.3666667 30.7877517,18.8340909 C30.7877517,18.3012626 30.5735738,17.7810606 30.1988255,17.404798 C29.8238255,17.0282828 29.3051174,16.8138889 28.7743289,16.8138889 L28.7743289,16.8138889 Z" id="Shape"></path>
                        <path d="M35.6577181,17.404798 C35.2827181,17.7810606 35.0662752,18.3012626 35.0662752,18.8340909 C35.0662752,19.3666667 35.2824664,19.8871212 35.6577181,20.2633838 C36.0327181,20.6393939 36.5511745,20.8542929 37.079698,20.8542929 C37.1645134,20.8542929 37.2485738,20.8469697 37.3321309,20.8361111 C37.7720638,20.779798 38.189094,20.5795455 38.5041946,20.2633838 C38.878943,19.8871212 39.0931208,19.3641414 39.0931208,18.8340909 C39.0931208,18.3035354 38.878943,17.7810606 38.5041946,17.404798 C38.189094,17.0886364 37.7720638,16.8883838 37.3321309,16.8323232 C37.2485738,16.8214646 37.1645134,16.8141414 37.079698,16.8141414 C36.5509228,16.8138889 36.0327181,17.0282828 35.6577181,17.404798 L35.6577181,17.404798 Z" id="Shape"></path>
                        <path d="M45.3850671,16.8138889 C44.8562919,16.8138889 44.3380872,17.0285354 43.9630872,17.404798 C43.5880872,17.7810606 43.3716443,18.3012626 43.3716443,18.8340909 C43.3716443,19.3666667 43.5878356,19.8871212 43.9630872,20.2633838 C44.3380872,20.6393939 44.8565436,20.8542929 45.3850671,20.8542929 C45.9158557,20.8542929 46.4345638,20.6393939 46.8095638,20.2633838 C47.1843121,19.8871212 47.3984899,19.3666667 47.3984899,18.8340909 C47.3984899,18.3012626 47.1843121,17.7810606 46.8095638,17.404798 C46.4345638,17.0282828 45.9158557,16.8138889 45.3850671,16.8138889 L45.3850671,16.8138889 Z" id="Shape"></path>
                        <path d="M28.7743289,25.1472222 C28.2455537,25.1472222 27.7248322,25.3618687 27.352349,25.7381313 C26.977349,26.1143939 26.760906,26.634596 26.760906,27.1674242 C26.760906,27.7 26.9770973,28.2204545 27.352349,28.5967172 C27.7248322,28.970202 28.2458054,29.1876263 28.7743289,29.1876263 C29.3051174,29.1876263 29.8238255,28.9704545 30.1988255,28.5967172 C30.5735738,28.2204545 30.7877517,27.7 30.7877517,27.1674242 C30.7877517,26.6368687 30.5735738,26.1143939 30.1988255,25.7381313 C29.8238255,25.3616162 29.3051174,25.1472222 28.7743289,25.1472222 L28.7743289,25.1472222 Z" id="Shape"></path>
                        <path d="M35.6552013,25.7381313 C35.2827181,26.1169192 35.0662752,26.6371212 35.0662752,27.1674242 C35.0662752,27.7 35.2824664,28.2204545 35.6552013,28.5967172 C36.0302013,28.970202 36.5511745,29.1876263 37.079698,29.1876263 C37.1645134,29.1876263 37.2485738,29.180303 37.3321309,29.1694444 C37.7720638,29.1123737 38.189094,28.9108586 38.5041946,28.5967172 C38.878943,28.2204545 39.0931208,27.7 39.0931208,27.1674242 C39.0931208,26.634596 38.878943,26.1143939 38.5041946,25.7381313 C38.189094,25.4219697 37.7720638,25.2217172 37.3321309,25.1656566 C37.2485738,25.154798 37.1645134,25.1474747 37.079698,25.1474747 C36.5509228,25.1472222 36.0302013,25.3616162 35.6552013,25.7381313 L35.6552013,25.7381313 Z" id="Shape"></path>
                        <path d="M45.3850671,25.1472222 C44.8562919,25.1472222 44.3355705,25.3618687 43.9605705,25.7381313 C43.5880872,26.1143939 43.3716443,26.6371212 43.3716443,27.1674242 C43.3716443,27.7 43.5878356,28.2204545 43.9605705,28.5967172 C44.3355705,28.970202 44.8565436,29.1876263 45.3850671,29.1876263 C45.9158557,29.1876263 46.4345638,28.9704545 46.8095638,28.5967172 C47.1843121,28.2204545 47.3984899,27.7 47.3984899,27.1674242 C47.3984899,26.634596 47.1843121,26.1143939 46.8095638,25.7381313 C46.4345638,25.3616162 45.9158557,25.1472222 45.3850671,25.1472222 L45.3850671,25.1472222 Z" id="Shape"></path>
                        <path d="M28.7743289,33.4805556 C28.2432886,33.4805556 27.7248322,33.6974747 27.352349,34.0714646 C26.977349,34.4477273 26.760906,34.9679293 26.760906,35.5007576 C26.760906,36.0333333 26.9770973,36.5537879 27.352349,36.9300505 C27.727349,37.3060606 28.2458054,37.5209596 28.7743289,37.5209596 C29.3051174,37.5209596 29.8238255,37.3060606 30.1988255,36.9300505 C30.5735738,36.5537879 30.7877517,36.0308081 30.7877517,35.5007576 C30.7877517,34.970202 30.5735738,34.4477273 30.1988255,34.0714646 C29.8238255,33.6974747 29.3051174,33.4805556 28.7743289,33.4805556 L28.7743289,33.4805556 Z" id="Shape"></path>
                        <path d="M35.6577181,34.0714646 C35.2827181,34.4477273 35.0662752,34.9679293 35.0662752,35.5007576 C35.0662752,36.0333333 35.2824664,36.5537879 35.6577181,36.9300505 C36.0327181,37.3060606 36.5511745,37.5209596 37.079698,37.5209596 C37.1645134,37.5209596 37.2485738,37.5136364 37.3321309,37.5027778 C37.7720638,37.4464646 38.189094,37.2462121 38.5041946,36.9300505 C38.878943,36.5537879 39.0931208,36.0333333 39.0931208,35.5007576 C39.0931208,34.9679293 38.878943,34.4477273 38.5041946,34.0714646 C38.189094,33.7573232 37.7720638,33.5558081 37.3321309,33.4987374 C37.2485738,33.4878788 37.1645134,33.4805556 37.079698,33.4805556 C36.5486577,33.4805556 36.0302013,33.6974747 35.6577181,34.0714646 L35.6577181,34.0714646 Z" id="Shape"></path>
                        <path d="M45.3850671,33.4805556 C44.8562919,33.4805556 44.3355705,33.6974747 43.9630872,34.0714646 C43.5880872,34.4477273 43.3716443,34.9679293 43.3716443,35.5007576 C43.3716443,36.0333333 43.5878356,36.5537879 43.9630872,36.9300505 C44.3380872,37.3060606 44.8565436,37.5209596 45.3850671,37.5209596 C45.9158557,37.5209596 46.4345638,37.3060606 46.8095638,36.9300505 C47.1843121,36.5537879 47.3984899,36.0333333 47.3984899,35.5007576 C47.3984899,34.9679293 47.1843121,34.4477273 46.8095638,34.0714646 C46.4345638,33.6974747 45.9158557,33.4805556 45.3850671,33.4805556 L45.3850671,33.4805556 Z" id="Shape"></path>
                        <path d="M28.7743289,41.8138889 C28.2455537,41.8138889 27.7248322,42.0308081 27.352349,42.404798 C26.977349,42.7810606 26.760906,43.3012626 26.760906,43.8340909 C26.760906,44.3666667 26.9770973,44.8871212 27.352349,45.2633838 C27.7248322,45.6368687 28.2458054,45.8542929 28.7743289,45.8542929 C29.3051174,45.8542929 29.8238255,45.6371212 30.1988255,45.2633838 C30.5735738,44.8871212 30.7877517,44.3666667 30.7877517,43.8340909 C30.7877517,43.3012626 30.5735738,42.7810606 30.1988255,42.404798 C29.8238255,42.0308081 29.3051174,41.8138889 28.7743289,41.8138889 L28.7743289,41.8138889 Z" id="Shape"></path>
                        <path d="M35.6552013,42.404798 C35.2827181,42.7810606 35.0662752,43.3037879 35.0662752,43.8340909 C35.0662752,44.3666667 35.2824664,44.8871212 35.6552013,45.2633838 C36.0302013,45.6368687 36.5511745,45.8542929 37.079698,45.8542929 C37.1645134,45.8542929 37.2485738,45.8469697 37.3321309,45.8361111 C37.7720638,45.7790404 38.189094,45.5775253 38.5041946,45.2633838 C38.878943,44.8871212 39.0931208,44.3666667 39.0931208,43.8340909 C39.0931208,43.3035354 38.878943,42.7810606 38.5041946,42.404798 C38.189094,42.0906566 37.7720638,41.8891414 37.3321309,41.8320707 C37.2485738,41.8212121 37.1645134,41.8138889 37.079698,41.8138889 C36.5509228,41.8138889 36.0327181,42.0308081 35.6552013,42.404798 L35.6552013,42.404798 Z" id="Shape"></path>
                        <path d="M43.9630872,42.404798 C43.5880872,42.7810606 43.3716443,43.3012626 43.3716443,43.8340909 C43.3716443,44.3666667 43.5878356,44.8871212 43.9630872,45.2633838 C44.3380872,45.6368687 44.8565436,45.8542929 45.3850671,45.8542929 C45.9158557,45.8542929 46.4345638,45.6371212 46.8095638,45.2633838 C47.1843121,44.8871212 47.3984899,44.3666667 47.3984899,43.8340909 C47.3984899,43.3012626 47.1843121,42.7810606 46.8095638,42.404798 C46.4345638,42.0308081 45.9158557,41.8138889 45.3850671,41.8138889 C44.8562919,41.8138889 44.3380872,42.0308081 43.9630872,42.404798 Z" id="Shape"></path>
                        <path d="M28.7743289,50.1472222 C28.2455537,50.1472222 27.727349,50.3618687 27.352349,50.7381313 C26.977349,51.1143939 26.760906,51.634596 26.760906,52.1674242 C26.760906,52.7 26.9770973,53.2204545 27.352349,53.5967172 C27.7248322,53.9727273 28.2458054,54.1876263 28.7743289,54.1876263 C29.3051174,54.1876263 29.8238255,53.9727273 30.1988255,53.5967172 C30.5735738,53.2204545 30.7877517,52.7 30.7877517,52.1674242 C30.7877517,51.634596 30.5735738,51.1143939 30.1988255,50.7381313 C29.8238255,50.3616162 29.3051174,50.1472222 28.7743289,50.1472222 L28.7743289,50.1472222 Z" id="Shape"></path>
                        <path d="M35.6577181,50.7381313 C35.2827181,51.1143939 35.0662752,51.634596 35.0662752,52.1674242 C35.0662752,52.7 35.2824664,53.2204545 35.6577181,53.5967172 C36.0302013,53.9727273 36.5511745,54.1876263 37.079698,54.1876263 C37.1645134,54.1876263 37.2485738,54.180303 37.3321309,54.1694444 C37.7720638,54.1131313 38.189094,53.9128788 38.5041946,53.5967172 C38.878943,53.2204545 39.0931208,52.6974747 39.0931208,52.1674242 C39.0931208,51.6368687 38.878943,51.1143939 38.5041946,50.7381313 C38.189094,50.4219697 37.7720638,50.2217172 37.3321309,50.165404 C37.2485738,50.1545455 37.1645134,50.1472222 37.079698,50.1472222 C36.5509228,50.1472222 36.0327181,50.3616162 35.6577181,50.7381313 L35.6577181,50.7381313 Z" id="Shape"></path>
                        <path d="M45.3850671,50.1472222 C44.8562919,50.1472222 44.3355705,50.3618687 43.9630872,50.7381313 C43.5880872,51.1143939 43.3716443,51.634596 43.3716443,52.1674242 C43.3716443,52.7 43.5878356,53.2204545 43.9630872,53.5967172 C44.3355705,53.9727273 44.8565436,54.1876263 45.3850671,54.1876263 C45.9158557,54.1876263 46.4345638,53.9727273 46.8095638,53.5967172 C47.1843121,53.2204545 47.3984899,52.7 47.3984899,52.1674242 C47.3984899,51.6368687 47.1843121,51.1143939 46.8095638,50.7381313 C46.4345638,50.3616162 45.9158557,50.1472222 45.3850671,50.1472222 L45.3850671,50.1472222 Z" id="Shape"></path>
                    </g>
                </g>
            </g>
        </g>
    </g>
</svg>