<?xml version="1.0" encoding="UTF-8" standalone="no"?>
<svg width="50px" height="50px" viewBox="0 0 50 50" version="1.1" xmlns="http://www.w3.org/2000/svg" xmlns:xlink="http://www.w3.org/1999/xlink">
    <!-- Generator: Sketch 39.1 (31720) - http://www.bohemiancoding.com/sketch -->
    <title>Capa_1</title>
    <desc>Created with Sketch.</desc>
    <defs></defs>
    <g id="Contacto" stroke="none" stroke-width="1" fill="none" fill-rule="evenodd">
        <g id="Desktop-HD" transform="translate(-741.000000, -786.000000)" fill="#FFFFFF">
            <g id="twitter-+-facebook2" transform="translate(650.000000, 786.000000)">
                <g id="facebook2" transform="translate(91.000000, 0.000000)">
                    <g id="Capa_1">
                        <path d="M24.826,0 C11.137,0 0,11.137 0,24.826 C0,38.514 11.137,49.652 24.826,49.652 C38.514,49.652 49.652,38.514 49.652,24.826 C49.652,11.137 38.516,0 24.826,0 L24.826,0 Z M31,25.7 L26.961,25.7 L26.961,40.096 L20.976,40.096 L20.976,25.7 L18.131,25.7 L18.131,20.612 L20.976,20.612 L20.976,17.321 C20.976,14.964 22.096,11.281 27.016,11.281 L31.451,11.298 L31.451,16.237 L28.232,16.237 C27.708,16.237 26.963,16.499 26.963,17.623 L26.963,20.613 L31.523,20.613 L31,25.7 L31,25.7 Z" id="Shape"></path>
                    </g>
                </g>
            </g>
        </g>
    </g>
</svg>